# xmcd
#
# Track frame offsets:
#	150
#	28189
#	54516
#	88282
#	108310
#	127968
#	151084
#	174645
#	192861
#	211870
#	230098
#	250085
#	269714
#
# Disc length: 3842 seconds
#
# Revision: 1
# Processed by: cddbd v1.5.2PL0 Copyright (c) Steve Scherf et al.
# Submitted via: audiograbber 1.83.01
#
DISCID=b40f000d
DTITLE=Neal Schon - Piranha Blues
DYEAR=1999
DGENRE=Biues  Rock
TTITLE0=Earth Intruders
TTITLE1=Wanderlust
TTITLE2=The Dull Flame of Desire
TTITLE3=Innocence
TTITLE4=I See Who You Are
TTITLE5=Vertabrae By Vertabrae
TTITLE6=Pneumonia
TTITLE7=Hope
TTITLE8=Declare Independence
TTITLE9=My Juvenile
TTITLE10=Earth Intruders (Mark Stent Ex
TTITLE11=Innocence (Mark Stent Mix)
TTITLE12=I See Who You Are (Mark Bell M
EXTD=
EXTT0=
EXTT1=
EXTT2=
EXTT3=
EXTT4=
EXTT5=
EXTT6=
EXTT7=
EXTT8=
EXTT9=
EXTT10=
EXTT11=
EXTT12=
PLAYORDER=
